# xmcd CD database file
#
# Track frame offsets:
#	150
#	14234
#	30633
#	43395
#	58117
#	72886
#	100271
#	122611
#	135923
#	147656
#	169812
#	185789
#
# Disc length: 2707 seconds
#
# Revision: 0
# Processed by: cddbd v1.5.1PL2 Copyright (c) Steve Scherf et al.
# Submitted via: CDex 1.51
#
DISCID=b80a910c
DTITLE=Cocco and Bisson - Break Down
DYEAR=2004
DGENRE=Blues
TTITLE0=Cocco and Bisson Break Down
TTITLE1=Foggy Blues
TTITLE2=Crosstown
TTITLE3=Guitar Highway
TTITLE4=Black, Brown and White
TTITLE5=Good Treatment
TTITLE6=Whole Lotta Love
TTITLE7=Bad Whiskey and Bad Women
TTITLE8=Ride on, Cocco, Ride on
TTITLE9=John Henry
TTITLE10=Ramblin' on my mind
TTITLE11=Oh my my
EXTD=YEAR: 2004
EXTT0=
EXTT1=
EXTT2=
EXTT3=
EXTT4=
EXTT5=
EXTT6=
EXTT7=
EXTT8=
EXTT9=
EXTT10=
EXTT11=
PLAYORDER=
